# Blender v2.76 (sub 0) OBJ File: ''
# www.blender.org
mtllib cube.mtl
o Cube
v 0.590524 -1.278409 0.270251
v 0.590524 -1.278409 2.270251
v -1.409476 -1.278409 2.270251
v -1.409475 -1.278409 0.270251
v 0.590525 0.721591 0.270252
v 0.609596 0.731132 2.279792
v -1.409476 0.721591 2.270251
v -1.409475 0.721591 0.270251
vt 0.000000 0.000000
vt 1.000000 0.000000
vt 1.000000 1.000000
vt 0.000000 1.000000
vn 0.000000 -1.000000 -0.000000
vn -0.002400 1.000000 -0.002400
vn 1.000000 -0.004700 -0.004700
vn -0.002400 -0.002400 1.000000
vn -1.000000 -0.000000 -0.000000
vn 0.000000 0.000000 -1.000000
usemtl Material
s off
f 1/1/1 2/2/1 3/3/1 4/4/1
f 5/1/2 8/2/2 7/3/2 6/4/2
f 1/1/3 5/2/3 6/3/3 2/4/3
f 2/1/4 6/2/4 7/3/4 3/4/4
f 3/1/5 7/2/5 8/3/5 4/4/5
f 5/1/6 1/2/6 4/3/6 8/4/6
