# Blender v2.76 (sub 0) OBJ File: ''
# www.blender.org
mtllib cylinder.mtl
o Cylinder
v 2.574061 -100.022766 -6.249565
v 2.574061 99.977234 -6.249565
v 2.769151 -100.022766 -6.230350
v 2.769151 99.977234 -6.230350
v 2.956744 -100.022766 -6.173444
v 2.956744 99.977234 -6.173444
v 3.129631 -100.022766 -6.081034
v 3.129631 99.977234 -6.081034
v 3.281168 -100.022766 -5.956671
v 3.281168 99.977234 -5.956671
v 3.405530 -100.022766 -5.805135
v 3.405530 99.977234 -5.805135
v 3.497941 -100.022766 -5.632248
v 3.497941 99.977234 -5.632248
v 3.554846 -100.022766 -5.444655
v 3.554846 99.977234 -5.444655
v 3.574061 -100.022766 -5.249565
v 3.574061 99.977234 -5.249565
v 3.554846 -100.022766 -5.054474
v 3.554846 99.977234 -5.054474
v 3.497941 -100.022766 -4.866881
v 3.497941 99.977234 -4.866881
v 3.405530 -100.022766 -4.693995
v 3.405530 99.977234 -4.693995
v 3.281168 -100.022766 -4.542458
v 3.281168 99.977234 -4.542458
v 3.129631 -100.022766 -4.418095
v 3.129631 99.977234 -4.418095
v 2.956744 -100.022766 -4.325685
v 2.956744 99.977234 -4.325685
v 2.769151 -100.022766 -4.268779
v 2.769151 99.977234 -4.268779
v 2.574061 -100.022766 -4.249565
v 2.574061 99.977234 -4.249565
v 2.378970 -100.022766 -4.268779
v 2.378970 99.977234 -4.268779
v 2.191377 -100.022766 -4.325686
v 2.191377 99.977234 -4.325686
v 2.018490 -100.022766 -4.418096
v 2.018490 99.977234 -4.418096
v 1.866954 -100.022766 -4.542459
v 1.866954 99.977234 -4.542459
v 1.742591 -100.022766 -4.693995
v 1.742591 99.977234 -4.693995
v 1.650181 -100.022766 -4.866882
v 1.650181 99.977234 -4.866882
v 1.593276 -100.022766 -5.054475
v 1.593276 99.977234 -5.054475
v 1.574061 -100.022766 -5.249566
v 1.574061 99.977234 -5.249566
v 1.593276 -100.022766 -5.444656
v 1.593276 99.977234 -5.444656
v 1.650182 -100.022766 -5.632249
v 1.650182 99.977234 -5.632249
v 1.742592 -100.022766 -5.805136
v 1.742592 99.977234 -5.805136
v 1.866955 -100.022766 -5.956672
v 1.866955 99.977234 -5.956672
v 2.018492 -100.022766 -6.081035
v 2.018492 99.977234 -6.081035
v 2.191379 -100.022766 -6.173445
v 2.191379 99.977234 -6.173445
v 2.378972 -100.022766 -6.230350
v 2.378972 99.977234 -6.230350
vn -0.098000 0.000000 0.995200
vn -0.290300 0.000000 0.956900
vn -0.471400 0.000000 0.881900
vn -0.634400 0.000000 0.773000
vn -0.773000 0.000000 0.634400
vn -0.881900 0.000000 0.471400
vn -0.956900 0.000000 0.290300
vn -0.995200 0.000000 0.098000
vn -0.995200 0.000000 -0.098000
vn -0.956900 0.000000 -0.290300
vn -0.881900 0.000000 -0.471400
vn -0.773000 0.000000 -0.634400
vn -0.634400 0.000000 -0.773000
vn -0.471400 0.000000 -0.881900
vn -0.290300 0.000000 -0.956900
vn -0.098000 0.000000 -0.995200
vn 0.098000 0.000000 -0.995200
vn 0.290300 0.000000 -0.956900
vn 0.471400 0.000000 -0.881900
vn 0.634400 0.000000 -0.773000
vn 0.773000 0.000000 -0.634400
vn 0.881900 0.000000 -0.471400
vn 0.956900 0.000000 -0.290300
vn 0.995200 0.000000 -0.098000
vn 0.995200 0.000000 0.098000
vn 0.956900 0.000000 0.290300
vn 0.881900 0.000000 0.471400
vn 0.773000 0.000000 0.634400
vn 0.634400 0.000000 0.773000
vn 0.471400 0.000000 0.881900
vn 0.000000 -1.000000 0.000000
vn 0.098000 0.000000 0.995200
vn 0.290300 0.000000 0.956900
vn 0.000000 1.000000 0.000000
usemtl None
s off
f 1//1 3//1 4//1 2//1
f 3//2 5//2 6//2 4//2
f 5//3 7//3 8//3 6//3
f 7//4 9//4 10//4 8//4
f 9//5 11//5 12//5 10//5
f 11//6 13//6 14//6 12//6
f 13//7 15//7 16//7 14//7
f 15//8 17//8 18//8 16//8
f 17//9 19//9 20//9 18//9
f 19//10 21//10 22//10 20//10
f 21//11 23//11 24//11 22//11
f 23//12 25//12 26//12 24//12
f 25//13 27//13 28//13 26//13
f 27//14 29//14 30//14 28//14
f 29//15 31//15 32//15 30//15
f 31//16 33//16 34//16 32//16
f 33//17 35//17 36//17 34//17
f 35//18 37//18 38//18 36//18
f 37//19 39//19 40//19 38//19
f 39//20 41//20 42//20 40//20
f 41//21 43//21 44//21 42//21
f 43//22 45//22 46//22 44//22
f 45//23 47//23 48//23 46//23
f 47//24 49//24 50//24 48//24
f 49//25 51//25 52//25 50//25
f 51//26 53//26 54//26 52//26
f 53//27 55//27 56//27 54//27
f 55//28 57//28 58//28 56//28
f 57//29 59//29 60//29 58//29
f 59//30 61//30 62//30 60//30
f 4//31 6//31 8//31 10//31 12//31 14//31 16//31 18//31 20//31 22//31 24//31 26//31 28//31 30//31 32//31 34//31 36//31 38//31 40//31 42//31 44//31 46//31 48//31 50//31 52//31 54//31 56//31 58//31 60//31 62//31 64//31 2//31
f 63//32 1//32 2//32 64//32
f 61//33 63//33 64//33 62//33
f 1//34 63//34 61//34 59//34 57//34 55//34 53//34 51//34 49//34 47//34 45//34 43//34 41//34 39//34 37//34 35//34 33//34 31//34 29//34 27//34 25//34 23//34 21//34 19//34 17//34 15//34 13//34 11//34 9//34 7//34 5//34 3//34
